<?xml version="1.0" standalone="no"?>
<!DOCTYPE svg PUBLIC "-//W3C//DTD SVG 20010904//EN"
 "http://www.w3.org/TR/2001/REC-SVG-20010904/DTD/svg10.dtd">
<svg version="1.0" xmlns="http://www.w3.org/2000/svg"
 width="96.000000pt" height="96.000000pt" viewBox="0 0 96.000000 96.000000"
 preserveAspectRatio="xMidYMid meet">
<metadata>
Created by potrace 1.14, written by Peter Selinger 2001-2017
</metadata>
<g transform="translate(0.000000,96.000000) scale(0.100000,-0.100000)"
fill="#000000" stroke="none">
<path d="M237 838 c-119 -26 -192 -118 -192 -243 0 -101 38 -170 160 -288 30
-30 56 -61 57 -68 0 -8 2 -18 3 -24 2 -5 3 -16 4 -22 2 -22 47 -44 75 -37 27
7 44 28 49 63 3 22 16 40 18 25 1 -5 2 -53 3 -106 3 -106 10 -123 58 -133 51
-12 71 18 74 112 2 104 3 105 13 99 5 -4 9 -27 9 -52 0 -65 42 -104 87 -81 34
17 39 38 40 146 0 73 4 106 13 109 8 2 12 -8 12 -30 0 -19 6 -43 14 -53 12
-16 12 -22 -1 -41 -20 -31 -13 -63 18 -86 20 -15 30 -17 52 -9 48 18 55 85 13
113 -8 6 -8 8 0 8 17 0 31 48 32 104 1 33 12 69 34 115 73 147 26 303 -109
363 -39 17 -90 24 -154 20 -14 -1 -51 -18 -83 -37 l-58 -35 -28 20 c-67 48
-140 64 -213 48z"/>
</g>
</svg>
